<mxfile host="app.diagrams.net" modified="2023-04-04T20:01:10.307Z" agent="Mozilla/5.0 (Windows NT 10.0; Win64; x64) AppleWebKit/537.36 (KHTML, like Gecko) Chrome/111.0.0.0 Safari/537.36" version="21.1.4" etag="-nr58ebqPLXTEUyV7hXd" type="github">
  <diagram name="PÃ¡gina-1" id="cp4jBdSvonldiK07e4PR">
    <mxGraphModel>
      <root>
        <mxCell id="0" />
        <mxCell id="1" parent="0" />
      </root>
    </mxGraphModel>
  </diagram>
</mxfile>
